<svg id="visual" viewBox="0 0 900 600" width="900" height="600" xmlns="http://www.w3.org/2000/svg" xmlns:xlink="http://www.w3.org/1999/xlink" version="1.1"><path d="M0 163L13.7 171C27.3 179 54.7 195 82 189C109.3 183 136.7 155 163.8 161C191 167 218 207 245.2 219C272.3 231 299.7 215 327 208C354.3 201 381.7 203 409 190C436.3 177 463.7 149 491 137C518.3 125 545.7 129 573 149C600.3 169 627.7 205 654.8 202C682 199 709 157 736.2 158C763.3 159 790.7 203 818 220C845.3 237 872.7 227 886.3 222L900 217L900 0L886.3 0C872.7 0 845.3 0 818 0C790.7 0 763.3 0 736.2 0C709 0 682 0 654.8 0C627.7 0 600.3 0 573 0C545.7 0 518.3 0 491 0C463.7 0 436.3 0 409 0C381.7 0 354.3 0 327 0C299.7 0 272.3 0 245.2 0C218 0 191 0 163.8 0C136.7 0 109.3 0 82 0C54.7 0 27.3 0 13.7 0L0 0Z" fill="#0a3a7d"></path><path d="M0 253L13.7 258C27.3 263 54.7 273 82 267C109.3 261 136.7 239 163.8 249C191 259 218 301 245.2 310C272.3 319 299.7 295 327 287C354.3 279 381.7 287 409 269C436.3 251 463.7 207 491 195C518.3 183 545.7 203 573 226C600.3 249 627.7 275 654.8 264C682 253 709 205 736.2 208C763.3 211 790.7 265 818 281C845.3 297 872.7 275 886.3 264L900 253L900 215L886.3 220C872.7 225 845.3 235 818 218C790.7 201 763.3 157 736.2 156C709 155 682 197 654.8 200C627.7 203 600.3 167 573 147C545.7 127 518.3 123 491 135C463.7 147 436.3 175 409 188C381.7 201 354.3 199 327 206C299.7 213 272.3 229 245.2 217C218 205 191 165 163.8 159C136.7 153 109.3 181 82 187C54.7 193 27.3 177 13.7 169L0 161Z" fill="#032a5f"></path><path d="M0 301L13.7 317C27.3 333 54.7 365 82 365C109.3 365 136.7 333 163.8 335C191 337 218 373 245.2 385C272.3 397 299.7 385 327 389C354.3 393 381.7 413 409 400C436.3 387 463.7 341 491 326C518.3 311 545.7 327 573 344C600.3 361 627.7 379 654.8 364C682 349 709 301 736.2 300C763.3 299 790.7 345 818 363C845.3 381 872.7 371 886.3 366L900 361L900 251L886.3 262C872.7 273 845.3 295 818 279C790.7 263 763.3 209 736.2 206C709 203 682 251 654.8 262C627.7 273 600.3 247 573 224C545.7 201 518.3 181 491 193C463.7 205 436.3 249 409 267C381.7 285 354.3 277 327 285C299.7 293 272.3 317 245.2 308C218 299 191 257 163.8 247C136.7 237 109.3 259 82 265C54.7 271 27.3 261 13.7 256L0 251Z" fill="#001b43"></path><path d="M0 403L13.7 423C27.3 443 54.7 483 82 481C109.3 479 136.7 435 163.8 423C191 411 218 431 245.2 438C272.3 445 299.7 439 327 451C354.3 463 381.7 493 409 480C436.3 467 463.7 411 491 397C518.3 383 545.7 411 573 430C600.3 449 627.7 459 654.8 435C682 411 709 353 736.2 353C763.3 353 790.7 411 818 429C845.3 447 872.7 425 886.3 414L900 403L900 359L886.3 364C872.7 369 845.3 379 818 361C790.7 343 763.3 297 736.2 298C709 299 682 347 654.8 362C627.7 377 600.3 359 573 342C545.7 325 518.3 309 491 324C463.7 339 436.3 385 409 398C381.7 411 354.3 391 327 387C299.7 383 272.3 395 245.2 383C218 371 191 335 163.8 333C136.7 331 109.3 363 82 363C54.7 363 27.3 331 13.7 315L0 299Z" fill="#00193b"></path><path d="M0 601L13.7 601C27.3 601 54.7 601 82 601C109.3 601 136.7 601 163.8 601C191 601 218 601 245.2 601C272.3 601 299.7 601 327 601C354.3 601 381.7 601 409 601C436.3 601 463.7 601 491 601C518.3 601 545.7 601 573 601C600.3 601 627.7 601 654.8 601C682 601 709 601 736.2 601C763.3 601 790.7 601 818 601C845.3 601 872.7 601 886.3 601L900 601L900 401L886.3 412C872.7 423 845.3 445 818 427C790.7 409 763.3 351 736.2 351C709 351 682 409 654.8 433C627.7 457 600.3 447 573 428C545.7 409 518.3 381 491 395C463.7 409 436.3 465 409 478C381.7 491 354.3 461 327 449C299.7 437 272.3 443 245.2 436C218 429 191 409 163.8 421C136.7 433 109.3 477 82 479C54.7 481 27.3 441 13.7 421L0 401Z" fill="#011732"></path></svg>